# xmcd
#
# Track frame offsets:
#	150
#	13785
#	24848
#	40636
#	52231
#	61156
#	75691
#	91516
#	104041
#	115966
#	125731
#
# Disc length: 1921 seconds
#
# Revision: 0
# Processed by: cddbd v1.5.2PL0 Copyright (c) Steve Scherf et al.
# Submitted via: audiograbber 1.83.01
#
DISCID=88077f0b
DTITLE=Charley Pride - Greatest Hits
DYEAR=1981
DGENRE=Country
TTITLE0=Never Been So Loved (In All My Life)
TTITLE1=Missin' You
TTITLE2=You're My Jamaica
TTITLE3=When I Stop Leaving (I'll Be Gone)
TTITLE4=Honky Tonk Blues
TTITLE5=Burgers and Fries
TTITLE6=Roll On Mississippi
TTITLE7=A Whole Lotta Things To Sing About
TTITLE8=She's Just An Old Love Turned Memory
TTITLE9=Someone Loves You Honey
TTITLE10=Where Do I Put Her Memory
EXTD=
EXTT0=
EXTT1=
EXTT2=
EXTT3=
EXTT4=
EXTT5=
EXTT6=
EXTT7=
EXTT8=
EXTT9=
EXTT10=
PLAYORDER=
